<?xml version="1.0" standalone="no"?>
<!DOCTYPE svg PUBLIC "-//W3C//DTD SVG 20010904//EN"
 "http://www.w3.org/TR/2001/REC-SVG-20010904/DTD/svg10.dtd">
<svg version="1.0" xmlns="http://www.w3.org/2000/svg"
 width="100.000000pt" height="100.000000pt" viewBox="0 0 100.000000 100.000000"
 preserveAspectRatio="xMidYMid meet">
<metadata>
Created by potrace 1.15, written by Peter Selinger 2001-2017
</metadata>
<g transform="translate(0.000000,100.000000) scale(0.100000,-0.100000)"
fill="#000000" stroke="none">
<path d="M0 500 l0 -500 500 0 500 0 0 500 0 500 -500 0 -500 0 0 -500z m190
480 c0 -6 26 -10 59 -10 33 0 63 5 66 10 3 6 30 10 60 10 30 0 57 -4 60 -10 3
-5 18 -10 33 -11 24 0 25 -1 7 -9 -17 -7 -17 -9 -2 -9 14 -1 17 -12 19 -68 l2
-68 3 68 c4 61 6 67 26 68 21 1 20 1 -3 9 -24 8 -23 8 8 9 17 1 32 6 32 11 0
6 27 10 60 10 33 0 60 -4 60 -10 0 -6 26 -10 59 -10 33 0 63 5 66 10 9 14 125
13 125 -1 0 -6 6 -9 13 -6 15 6 35 -14 29 -31 -2 -6 1 -12 7 -12 7 0 11 -24
11 -60 0 -33 -4 -60 -10 -60 -6 0 -10 -26 -10 -59 0 -33 5 -63 10 -66 6 -3 10
-30 10 -60 0 -30 -4 -57 -10 -60 -5 -3 -11 -21 -11 -38 l-1 -32 -8 30 -8 30
-1 -27 c-1 -23 -6 -28 -28 -29 l-28 -2 28 -4 c19 -3 27 -10 28 -26 1 -20 2
-20 9 3 l8 25 1 -27 c1 -16 6 -28 11 -28 6 0 10 -27 10 -60 0 -33 -4 -60 -10
-60 -6 0 -10 -28 -10 -65 0 -37 4 -65 10 -65 6 0 10 -27 10 -60 0 -38 -4 -60
-11 -60 -6 0 -9 -9 -6 -20 3 -11 2 -20 -2 -20 -3 0 -37 31 -75 69 l-68 68 46
67 c25 37 46 73 46 79 0 7 -14 -10 -30 -38 -16 -27 -39 -61 -50 -74 -18 -20
-22 -22 -38 -10 -15 13 -16 12 -4 -3 12 -15 10 -21 -15 -43 l-28 -26 33 22 32
23 64 -63 c54 -54 62 -66 51 -77 -16 -16 -125 -19 -125 -4 0 6 -28 10 -65 10
-37 0 -65 -4 -65 -10 0 -6 -27 -10 -60 -10 -33 0 -60 4 -60 10 0 6 -13 10 -30
10 l-30 0 -2 128 -2 127 -3 -127 c-4 -128 -4 -128 -28 -128 -13 0 -27 -5 -30
-10 -8 -13 -112 -13 -120 0 -3 6 -33 10 -66 10 -33 0 -59 -4 -59 -10 0 -6 -27
-10 -60 -10 -33 0 -60 4 -60 9 0 5 -11 12 -25 15 -16 4 -22 11 -19 21 4 8 1
15 -5 15 -7 0 -11 23 -11 60 0 33 4 60 10 60 6 0 10 28 10 65 0 37 -4 65 -10
65 -6 0 -10 27 -10 60 0 33 4 60 10 60 6 0 10 11 10 24 0 23 2 23 97 25 130 3
133 11 5 11 l-102 0 0 29 c0 17 -4 33 -10 36 -13 8 -13 112 0 120 5 3 10 33
10 66 0 33 -4 59 -10 59 -15 0 -12 109 4 125 11 11 24 3 80 -54 l67 -67 -22
-20 c-23 -20 -79 -112 -79 -129 0 -5 14 15 31 45 16 30 39 65 51 78 l22 23
101 -98 100 -98 -98 101 -99 101 29 24 c16 13 40 32 53 42 25 18 25 18 -5 1
-16 -9 -39 -25 -51 -35 -11 -11 -24 -19 -29 -19 -11 0 -145 131 -145 141 0 4
9 5 20 2 11 -3 20 0 20 6 0 7 22 11 60 11 33 0 60 -4 60 -10z"/>
</g>
</svg>
